# xmcd
#
# Track frame offsets:
#	150
#	18282
#	33476
#	50762
#	66808
#	83319
#	101217
#	113153
#	129062
#	146912
#	164802
#	183544
#	199683
#	219218
#	236788
#	249763
#	266917
#	280626
#
# Disc length: 3998 seconds
#
# Revision: 2
# Processed by: cddbd v1.5.2PL0 Copyright (c) Steve Scherf et al.
# Submitted via: audiograbber 1.83.01
#
DISCID=010f9c12
DTITLE=Various Artist - Promo Only Country Radio July 2009
DYEAR=2009
DGENRE=Country
TTITLE0=Rascal Flatts - Summer Nights (Album Version)
TTITLE1=Jason Aldean - Big Green Tractor
TTITLE2=Gretchen Wilson - If I Could Do It All Again (Single Edit)
TTITLE3=Jimmy Wayne - I'll Be That
TTITLE4=Trace Adkins - All I Ask For Anymore
TTITLE5=Richie McDonald - Six - Foot Teddy Bear
TTITLE6=Rodney Atkins - 15 Minutes (Album Version)
TTITLE7=Matt Stillwell - Sweet Sun Angel
TTITLE8=Luke Bryan - Do I
TTITLE9=Due West - I Get That All The Time
TTITLE10=Parks - As Long As You're Goin' My Way (Single Version)
TTITLE11=Pat Green - What I'm For (Album Version)
TTITLE12=Martina McBride - I Just Call You Mine (Album Version)
TTITLE13=Mark Wills - Entertaining Angels
TTITLE14=Ben Kweller - Fight (Album Version)
TTITLE15=Kate Russell - Better Days
TTITLE16=Amanda Shires - Upon Hearing Violins (Album Version)
TTITLE17=The Lovell Sisters - Time To Grow (Album Version)
EXTD=
EXTT0=
EXTT1=
EXTT2=
EXTT3=
EXTT4=
EXTT5=
EXTT6=
EXTT7=
EXTT8=
EXTT9=
EXTT10=
EXTT11=
EXTT12=
EXTT13=
EXTT14=
EXTT15=
EXTT16=
EXTT17=
PLAYORDER=
